      <svg textRendering="auto" xmlns="http://www.w3.org/2000/svg" width="682.667" height="682.667" fill-rule="evenodd" clip-rule="evenodd" image-rendering="optimizeQuality" shape-rendering="geometricPrecision" text-rendering="geometricPrecision" viewBox="0 0 7.111 7.111" id="daisy"><path fill="#c5d3dd" d="M2.70992 2.80891c-0.00479528,0 -0.00961417,-0.000417323 -0.0144134,-0.00125197 -0.0270315,-0.00474803 -0.0499843,-0.0224843 -0.0613937,-0.0474409 -0.105177,-0.230209 -0.273673,-0.464799 -0.487283,-0.678406 -0.124764,-0.124764 -0.257508,-0.234689 -0.394535,-0.326748 -0.0185551,-0.0124724 -0.0313346,-0.031874 -0.0354449,-0.0538622 -0.0619803,-0.331744 -0.0608583,-0.65274 0.00316535,-0.903862 0.0695276,-0.272661 0.210528,-0.450354 0.397024,-0.500315 0.0353071,-0.00945669 0.0720276,-0.0142598 0.109154,-0.0142598 0.389717,0 0.813307,0.525283 1.00722,1.249 0.0832244,0.310563 0.113571,0.618244 0.0877638,0.889752 -0.00326378,0.0343898 -0.0274173,0.0631811 -0.0606929,0.0724134 -0.185524,0.0514606 -0.355343,0.151748 -0.491106,0.290039 -0.0158031,0.0160827 -0.0372913,0.0249449 -0.0594567,0.0249449z"></path><path fill="#dae3e9" d="M2.40791 3.3427c-0.0170827,0 -0.0340157,-0.00525197 -0.0483189,-0.0154331 -0.206134,-0.146665 -0.46926,-0.2655 -0.760909,-0.34365 -0.170445,-0.0456693 -0.340358,-0.0745 -0.505051,-0.0857047 -0.0223031,-0.00151181 -0.0430787,-0.0119409 -0.057626,-0.0289291 -0.219567,-0.256303 -0.379075,-0.534854 -0.449189,-0.78435 -0.076126,-0.270902 -0.0428622,-0.495287 0.0936654,-0.631815 0.0876535,-0.0876378 0.213626,-0.133972 0.364319,-0.133972 0.354524,0 0.821961,0.247177 1.21987,0.645091 0.227465,0.227465 0.40763,0.47887 0.52102,0.727004 0.0143465,0.0313898 0.00785039,0.0683701 -0.0163189,0.093 -0.135705,0.13826 -0.232791,0.309843 -0.280764,0.496189 -0.00684252,0.0265827 -0.0263346,0.0480827 -0.0521102,0.0575 -0.00928346,0.00340157 -0.0189646,0.00507087 -0.0285906,0.00507087z"></path><path fill="#c5d3dd" d="M1.05798 4.22548c-0.00935039,0 -0.0187244,-0.00157087 -0.0277047,-0.00473228 -0.318291,-0.112193 -0.595732,-0.273669 -0.781189,-0.454661 -0.20137,-0.196555 -0.284764,-0.407508 -0.234787,-0.594008 0.0748425,-0.279315 0.422465,-0.446063 0.929902,-0.446063 0.220472,0 0.461689,0.0334173 0.697602,0.096622 0.310555,0.0832047 0.592161,0.210764 0.814394,0.368858 0.0281102,0.0199961 0.0410039,0.0552638 0.0324055,0.0886654 -0.0230118,0.0894685 -0.0346811,0.182122 -0.0346811,0.275413 0,0.100024 0.0134567,0.199315 0.0400157,0.295067 0.00733071,0.0264291 0.0011811,0.0547756 -0.0164488,0.0758031 -0.0176102,0.0210276 -0.0444016,0.0320827 -0.0717638,0.0294173 -0.0564016,-0.00535827 -0.115803,-0.00808268 -0.176551,-0.00808268 -0.206067,0 -0.432315,0.0314409 -0.654295,0.0909252 -0.170362,0.0456378 -0.331941,0.105626 -0.480248,0.178295 -0.0115118,0.00562992 -0.0240669,0.00848031 -0.0366496,0.00848031z"></path><path fill="#dae3e9" d="M1.22686 5.44011c-0.507394,0 -0.855004,-0.166748 -0.929835,-0.446035 -0.0554331,-0.206843 0.0504134,-0.438382 0.298035,-0.651992 0.231402,-0.199606 0.564051,-0.364535 0.936697,-0.464398 0.306386,-0.0820827 0.622244,-0.113177 0.889752,-0.0877441 0.0343898,0.00324803 0.0631969,0.0273976 0.0724173,0.0606811 0.0514567,0.185524 0.151744,0.355354 0.290035,0.491114 0.0195866,0.0192244 0.0284449,0.0468465 0.0237047,0.0738661 -0.00474803,0.0270276 -0.0224961,0.0499961 -0.0474567,0.0613898 -0.230217,0.105177 -0.464799,0.273689 -0.678406,0.487283 -0.124764,0.124776 -0.234689,0.257524 -0.326748,0.394535 -0.0124724,0.0185669 -0.031874,0.0313504 -0.0538622,0.0354449 -0.162811,0.0304291 -0.322394,0.0458543 -0.474335,0.0458543z"></path><path fill="#c5d3dd" d="M1.81714 6.56459c-0.150689,0 -0.276646,-0.0463346 -0.364287,-0.133972 -0.151417,-0.151402 -0.175524,-0.404839 -0.0678898,-0.713661 0.100583,-0.288551 0.306217,-0.597713 0.579008,-0.87052 0.227457,-0.227465 0.478854,-0.407646 0.727004,-0.521031 0.0313898,-0.0143465 0.0683701,-0.0078622 0.0930118,0.0163189 0.13826,0.13572 0.309827,0.232819 0.496185,0.280776 0.0265827,0.00683465 0.0480827,0.0263346 0.0575,0.0521102 0.00941732,0.0257717 0.00552756,0.0545394 -0.0103701,0.0769016 -0.146665,0.206134 -0.2655,0.469244 -0.34365,0.760909 -0.0456693,0.170425 -0.0745,0.340339 -0.0857047,0.505047 -0.00151181,0.0223031 -0.0119409,0.0430787 -0.0289291,0.057626 -0.357811,0.306528 -0.751031,0.489496 -1.05188,0.489496z"></path><path fill="#dae3e9" d="M3.28123 7.11106c-0.0371142,0 -0.0738346,-0.00480315 -0.109154,-0.014252 -0.410969,-0.110138 -0.564469,-0.82502 -0.349441,-1.62752 0.0832047,-0.310535 0.210748,-0.592161 0.368843,-0.814394 0.0199961,-0.0280827 0.0552323,-0.0409843 0.0886654,-0.0323858 0.185496,0.0477047 0.385504,0.0459803 0.57048,-0.00533465 0.0263701,-0.00733465 0.0547638,-0.0011811 0.0758031,0.0164449 0.0210118,0.017626 0.0320276,0.0444567 0.0294173,0.0717638 -0.0239567,0.25187 0.0046811,0.539173 0.0828425,0.830835 0.0456693,0.170429 0.105654,0.332012 0.178295,0.480244 0.00984646,0.0200709 0.0112047,0.0432638 0.00376378,0.0643622 -0.217173,0.616217 -0.594756,1.03024 -0.939516,1.03024z"></path><path fill="#c5d3dd" d="M4.88495 6.82837c-0.389732,0 -0.813323,-0.525287 -1.00724,-1.24902 -0.0832087,-0.310563 -0.113571,-0.618252 -0.0877362,-0.889752 0.00326378,-0.0343858 0.0273976,-0.0631929 0.0606811,-0.0724291 0.185508,-0.0514331 0.355327,-0.151736 0.491106,-0.290024 0.0192047,-0.0195669 0.0467756,-0.0284843 0.073874,-0.0236929 0.0270118,0.00473622 0.0499803,0.0224882 0.061374,0.0474409 0.105161,0.230193 0.273673,0.464787 0.487283,0.678409 0.124732,0.12472 0.257484,0.234661 0.394551,0.326744 0.0185669,0.0124724 0.0313504,0.0318898 0.0354449,0.053874 0.0619961,0.331744 0.060874,0.65274 -0.00316535,0.90385 -0.0695433,0.272665 -0.210528,0.450358 -0.397035,0.500331 -0.035311,0.00946063 -0.0720157,0.0142638 -0.109142,0.0142638z"></path><path fill="#dae3e9" d="M6.06631 5.79225c-0.354524,0 -0.821965,-0.247193 -1.21986,-0.645102 -0.227465,-0.227457 -0.407634,-0.478854 -0.521024,-0.726992 -0.0143425,-0.0314016 -0.00784646,-0.0683898 0.0163228,-0.0930157 0.135705,-0.13826 0.232799,-0.309843 0.280772,-0.496185 0.00684646,-0.0265669 0.0263346,-0.0480827 0.0521102,-0.0575 0.0257913,-0.00943307 0.0545394,-0.00554331 0.0769016,0.0103701 0.206106,0.146665 0.469228,0.265484 0.760909,0.34365 0.170386,0.0456535 0.340299,0.0744882 0.505031,0.0857047 0.0223071,0.00151181 0.0430827,0.0119409 0.057626,0.0289291 0.219567,0.256303 0.379094,0.534854 0.449205,0.784354 0.0761063,0.270898 0.0428583,0.495283 -0.0936811,0.631811 -0.0876339,0.0876417 -0.213606,0.133976 -0.364315,0.133976z"></path><path fill="#c5d3dd" d="M6.16692 4.38511c-0.220457,0 -0.461673,-0.0334173 -0.697602,-0.096626 -0.310563,-0.0832205 -0.592173,-0.210772 -0.814394,-0.36887 -0.0281102,-0.0199843 -0.0410039,-0.055248 -0.0324055,-0.0886654 0.0230118,-0.0894449 0.0346811,-0.182098 0.0346811,-0.275398 0,-0.100067 -0.0134567,-0.199346 -0.0400118,-0.295079 -0.0073189,-0.0264291 -0.0011811,-0.0547638 0.0164449,-0.0757874 0.0176378,-0.0210315 0.0445118,-0.0319764 0.0717638,-0.0294331 0.0564016,0.00535827 0.115787,0.00808268 0.176535,0.00808268 0.206098,0 0.432343,-0.0314449 0.654315,-0.0909173 0.170402,-0.0456693 0.331969,-0.105638 0.480244,-0.178291 0.0200669,-0.00983071 0.0432756,-0.0111811 0.0643622,-0.00376378 0.318299,0.112193 0.595728,0.273665 0.781185,0.454677 0.201374,0.196535 0.284748,0.407496 0.234776,0.593992 -0.0748386,0.279315 -0.422457,0.446079 -0.929894,0.446079z"></path><path fill="#dae3e9" d="M4.88195 3.32999c-0.0659961,0 -0.130705,-0.00297244 -0.192343,-0.00883465 -0.034374,-0.00326772 -0.0631811,-0.0274173 -0.0724016,-0.0606929 -0.0514724,-0.185524 -0.151764,-0.355354 -0.290055,-0.491106 -0.0195866,-0.0192244 -0.0284449,-0.0468622 -0.0236969,-0.073874 0.00473622,-0.0270276 0.0224882,-0.0499843 0.0474449,-0.0613898 0.230205,-0.105181 0.464795,-0.273693 0.678421,-0.487299 0.124764,-0.124776 0.234689,-0.257528 0.326728,-0.394535 0.0124567,-0.0185669 0.0318898,-0.0313346 0.053874,-0.0354449 0.162803,-0.0304134 0.322402,-0.0458465 0.474331,-0.0458465 0.507409,0 0.85502,0.166732 0.92985,0.446035 0.0554173,0.206843 -0.0504291,0.438382 -0.298035,0.651992 -0.231402,0.199626 -0.564051,0.364535 -0.936697,0.464382 -0.235803,0.0632126 -0.476965,0.0966142 -0.697421,0.0966142z"></path><path fill="#c5d3dd" d="M4.38555 2.79322c-0.0214016,0 -0.0424882,-0.00823622 -0.0584016,-0.0238622 -0.13826,-0.135705 -0.309843,-0.232799 -0.496189,-0.280764 -0.0265669,-0.00684252 -0.0480827,-0.0263346 -0.0575,-0.0521102 -0.00941732,-0.0257717 -0.00552756,-0.0545394 0.010374,-0.0769016 0.146661,-0.206122 0.265496,-0.469244 0.343646,-0.760917 0.0456811,-0.170445 0.0745157,-0.34037 0.0857087,-0.505035 0.00151181,-0.0223031 0.0119409,-0.0430787 0.0289252,-0.057626 0.357803,-0.306492 0.751004,-0.489476 1.05186,-0.489476 0.150689,0 0.276646,0.0463189 0.364287,0.133969 0.151417,0.151417 0.175543,0.404874 0.0679016,0.713661 -0.100583,0.288563 -0.306217,0.597728 -0.579008,0.87052 -0.227465,0.227484 -0.47887,0.40765 -0.727016,0.521024 -0.0110866,0.00506299 -0.0228819,0.00751969 -0.0345906,0.00751969z"></path><path fill="#dae3e9" d="M2.95692 0.859264c0.222555,-0.520559 0.561177,-0.859217 0.872976,-0.859217 0.037126,0 0.0738346,0.00480315 0.109138,0.0142598 0.410984,0.110126 0.564484,0.825004 0.349457,1.62749 -0.0832047,0.310551 -0.210764,0.592161 -0.368874,0.814394 -0.0199803,0.0281102 -0.0552638,0.041 -0.0886654,0.0324055 -0.184945,-0.0475945 -0.384571,-0.0459803 -0.56928,0.00498819 0.0326614,-0.00958268 0.0562835,-0.0380906 0.0595079,-0.0720709 0.0258071,-0.271508 -0.00453937,-0.579189 -0.0877638,-0.889752 -0.0678228,-0.253118 -0.163756,-0.481909 -0.276496,-0.6725z"></path><path fill="#f09e2d" d="M3.55556 4.82386c-0.69935,0 -1.2683,-0.568965 -1.2683,-1.2683 0,-0.699343 0.568965,-1.2683 1.2683,-1.2683 0.699339,0 1.2683,0.568961 1.2683,1.2683 0,0.699339 -0.568953,1.2683 -1.2683,1.2683z"></path><path fill="#f38025" d="M3.55597 2.70865l-.000795276 0c-.0460118 0-.0833307-.037315-.0833307-.0833307 0-.0460157.0373189-.0833346.0833307-.0833346.0460157 0 .0837205.0373189.0837205.0833346 0 .0460157-.0369016.0833307-.0829252.0833307zM4.0207 2.83344c-.0136535 0-.0275-.00338976-.0403189-.0105551l-.000692913-.000389764c-.0401811-.0224567-.0545591-.0732205-.0321024-.113402.0224331-.0401654.0732087-.054563.11339-.0320984.0401811.0224567.0548898.0734173.0324488.113594-.0152835.0273819-.0435433.0428504-.0727244.0428504zM4.361 3.17388c-.0288346 0-.0567756-.0149843-.0720669-.0418976l-.000389764-.000692913c-.022748-.04-.00876378-.090878.031252-.113638.0400236-.0227638.0908858-.00876772.113634.031248.022752.04.00896063.0912244-.0310551.113984-.0131102.00744488-.0273465.0109961-.041374.0109961zM4.4858 3.63889c-.0460157 0-.0833307-.0369173-.0833307-.0829449l0-.000791339c0-.0460157.037315-.0833307.0833307-.0833307.0460157 0 .0833307.037315.0833307.0833307 0 .0460315-.0373228.0837362-.0833307.0837362zM4.36084 4.10392c-.0138976 0-.0279567-.00347244-.0408583-.0108189-.0400157-.022752-.0541929-.0732677-.0314606-.113276l.000389764-.000692913c.0227362-.0400157.0735945-.0540157.113638-.031248.0400118.022748.0539961.073626.031248.113634-.0154016.0270984-.0437992.0424016-.0729567.0424016zM4.02085 4.44435c-.0290354 0-.0572717-.0150551-.0726063-.0420157-.0227677-.04-.00911417-.0906811.0309016-.113433l.000692913-.000385827c.0400433-.0227677.090878-.00876772.113638.031248.022752.0400157.00876772.0908858-.031248.113634-.0130551.00741339-.0273071.0109528-.041378.0109528zM3.55597 4.56913c-.0460157 0-.0837205-.0373189-.0837205-.0833307 0-.0460157.0369173-.0833346.0829252-.0833346l.000795276 0c.0460236 0 .0833307.0373189.0833307.0833346 0 .0460118-.0373071.0833307-.0833307.0833307zM3.09072 4.4447c-.0140827 0-.0283465-.00357087-.0414173-.0110827-.0399173-.0229173-.0540236-.0740551-.0311142-.113953.0229134-.0399016.0735118-.0538898.113417-.0309606l.000681102.000385827c.0399173.0229213.0536811.0738465.0307677.113764-.0154055.0268268-.0434764.0418465-.0723346.0418465zM2.75024 4.10437c-.0289882 0-.0571535-.0151535-.0725118-.0421535-.022752-.0400157-.00896063-.0912205.0310512-.113972.0400157-.022748.090685-.00909449.113433.0309055l.000389764.000692913c.022748.0400118.00874803.0908858-.031248.113634-.0130039.00738189-.0271575.0108937-.0411142.0108937zM2.62534 3.63928c-.0460157 0-.0833307-.0373189-.0833307-.0833346 0-.0460118.037315-.0837205.0833307-.0837205.0460157 0 .0833307.0369213.0833307.0829291l0 .000791339c0 .0460276-.037315.0833346-.0833307.0833346zM2.7497 3.17413c-.0139606 0-.0281102-.00351181-.0411142-.0109016-.04-.022752-.054-.073626-.031248-.113638.022748-.0400157.0738307-.0543189.113831-.0315945.04.022748.0541929.0732756.0314409.113287l-.000385827.000692913c-.015378.0270039-.0435551.0421535-.0725236.0421535zM3.09018 2.8335c-.0290787 0-.0573307-.015252-.0726378-.0423898-.022626-.0400827-.00847244-.0909016.0316102-.113524.0400827-.022626.0912638-.00865354.113874.0314134.0226063.0400866.00880315.0907244-.0312756.113335l-.000685039.000385827c-.012937.00730315-.0270039.0107795-.0408858.0107795zM3.55556 4.31436c-.418398 0-.758807-.340398-.758807-.758807 0-.418409.340398-.758811.758807-.758811.418409 0 .758811.340402.758811.758811 0 .418409-.340402.758807-.758811.758807z"></path></svg>